<mxfile host="app.diagrams.net" modified="2024-02-24T03:22:42.145Z" agent="Mozilla/5.0 (Macintosh; Intel Mac OS X 10_15_7) AppleWebKit/537.36 (KHTML, like Gecko) Chrome/121.0.0.0 Safari/537.36" version="23.1.6" etag="iYmPnYcQn4_a6yLHFzBO" type="github">
  <diagram name="第 1 页" id="kTx8fw38r4h68Fi3cjJw">
    <mxGraphModel>
      <root>
        <mxCell id="0" />
        <mxCell id="1" parent="0" />
      </root>
    </mxGraphModel>
  </diagram>
</mxfile>
